<svg width="10" height="17" viewBox="0 0 10 17" fill="none" xmlns="http://www.w3.org/2000/svg">
<path d="M0.458008 8.6543C0.466797 8.29395 0.589844 7.99512 0.879883 7.71387L7.64746 1.0957C7.86719 0.867188 8.13965 0.761719 8.47363 0.761719C9.13281 0.761719 9.66016 1.28027 9.66016 1.93945C9.66016 2.26465 9.52832 2.56348 9.29102 2.80078L3.2793 8.64551L9.29102 14.5078C9.52832 14.7451 9.66016 15.0352 9.66016 15.3691C9.66016 16.0283 9.13281 16.5557 8.47363 16.5557C8.14844 16.5557 7.86719 16.4414 7.64746 16.2129L0.879883 9.59473C0.589844 9.31348 0.458008 9.01465 0.458008 8.6543Z" fill="#E66EE9"/>
</svg>
