<svg width="10" height="17" viewBox="0 0 10 17" fill="none" xmlns="http://www.w3.org/2000/svg">
<path d="M9.83496 8.6543C9.83496 9.01465 9.71191 9.31348 9.42188 9.59473L2.6543 16.2129C2.42578 16.4414 2.15332 16.5557 1.82812 16.5557C1.16895 16.5557 0.632812 16.0283 0.632812 15.3691C0.632812 15.0352 0.773438 14.7451 1.01074 14.5078L7.02246 8.64551L1.01074 2.80078C0.773438 2.56348 0.632812 2.26465 0.632812 1.93945C0.632812 1.28027 1.16895 0.761719 1.82812 0.761719C2.15332 0.761719 2.42578 0.867188 2.6543 1.0957L9.42188 7.71387C9.70312 7.99512 9.83496 8.29395 9.83496 8.6543Z" fill="#E66EE9"/>
</svg>
